<svg width="56" height="20" viewBox="0 0 56 20" fill="none" xmlns="http://www.w3.org/2000/svg">
<path d="M5.604 16.864C4.54 16.864 3.624 16.712 2.856 16.408C2.088 16.112 1.5 15.668 1.092 15.076C0.684 14.484 0.48 13.752 0.48 12.88C0.48 12.624 0.496 12.364 0.528 12.1C0.568 11.828 0.62 11.544 0.684 11.248L1.824 11.476C1.776 11.772 1.74 12.028 1.716 12.244C1.7 12.46 1.692 12.644 1.692 12.796C1.692 13.692 2.012 14.364 2.652 14.812C3.3 15.26 4.268 15.484 5.556 15.484C6.324 15.484 6.984 15.412 7.536 15.268C8.096 15.132 8.528 14.948 8.832 14.716C9.136 14.484 9.288 14.232 9.288 13.96C9.288 13.8 9.228 13.664 9.108 13.552C8.988 13.44 8.788 13.328 8.508 13.216C8.228 13.104 7.848 12.964 7.368 12.796L7.74 11.488C8.068 11.592 8.396 11.708 8.724 11.836C9.052 11.964 9.348 12.12 9.612 12.304C9.884 12.488 10.1 12.716 10.26 12.988C10.42 13.252 10.5 13.58 10.5 13.972C10.5 14.364 10.416 14.712 10.248 15.016C10.08 15.328 9.844 15.6 9.54 15.832C9.244 16.064 8.892 16.256 8.484 16.408C8.076 16.56 7.628 16.672 7.14 16.744C6.652 16.824 6.14 16.864 5.604 16.864ZM8.676 13C7.74 13 7.032 12.768 6.552 12.304L7.392 11.32C7.448 11.368 7.536 11.416 7.656 11.464C7.784 11.512 7.936 11.552 8.112 11.584C8.288 11.608 8.476 11.62 8.676 11.62H10.5V13H8.676ZM10.5 13V11.62C10.588 11.62 10.648 11.684 10.68 11.812C10.72 11.932 10.74 12.096 10.74 12.304C10.74 12.512 10.72 12.68 10.68 12.808C10.648 12.936 10.588 13 10.5 13ZM6.468 19.792C6.26 19.792 6.084 19.72 5.94 19.576C5.804 19.432 5.736 19.26 5.736 19.06C5.736 18.844 5.804 18.668 5.94 18.532C6.084 18.396 6.26 18.328 6.468 18.328C6.676 18.328 6.848 18.396 6.984 18.532C7.128 18.668 7.2 18.844 7.2 19.06C7.2 19.26 7.128 19.432 6.984 19.576C6.848 19.72 6.676 19.792 6.468 19.792ZM4.764 19.792C4.556 19.792 4.38 19.72 4.236 19.576C4.1 19.432 4.032 19.26 4.032 19.06C4.032 18.844 4.1 18.668 4.236 18.532C4.38 18.396 4.556 18.328 4.764 18.328C4.972 18.328 5.144 18.396 5.28 18.532C5.424 18.668 5.496 18.844 5.496 19.06C5.496 19.26 5.424 19.432 5.28 19.576C5.144 19.72 4.972 19.792 4.764 19.792ZM10.5 13V11.62H11.112C11.456 11.62 11.712 11.596 11.88 11.548C12.048 11.492 12.16 11.392 12.216 11.248C12.272 11.104 12.3 10.896 12.3 10.624V7.216H13.512V10.624C13.512 11.16 13.428 11.604 13.26 11.956C13.092 12.308 12.832 12.572 12.48 12.748C12.128 12.916 11.672 13 11.112 13H10.5ZM14.7 13C14.14 13 13.684 12.916 13.332 12.748C12.98 12.572 12.72 12.308 12.552 11.956C12.384 11.604 12.3 11.16 12.3 10.624H13.512C13.512 10.896 13.54 11.104 13.596 11.248C13.652 11.392 13.764 11.492 13.932 11.548C14.108 11.596 14.364 11.62 14.7 11.62H15.192V13H14.7ZM15.192 13V11.62C15.28 11.62 15.34 11.684 15.372 11.812C15.412 11.932 15.432 12.096 15.432 12.304C15.432 12.512 15.412 12.68 15.372 12.808C15.34 12.936 15.28 13 15.192 13ZM10.5 13C10.412 13 10.352 12.936 10.32 12.808C10.28 12.68 10.26 12.508 10.26 12.292C10.26 12.084 10.28 11.92 10.32 11.8C10.352 11.68 10.412 11.62 10.5 11.62V13ZM12.912 16.216C12.688 16.216 12.496 16.136 12.336 15.976C12.184 15.824 12.108 15.636 12.108 15.412C12.108 15.18 12.184 14.988 12.336 14.836C12.496 14.684 12.688 14.608 12.912 14.608C13.144 14.608 13.336 14.684 13.488 14.836C13.64 14.988 13.716 15.18 13.716 15.412C13.716 15.636 13.64 15.824 13.488 15.976C13.336 16.136 13.144 16.216 12.912 16.216ZM15.1875 13V11.62H15.5595C15.9035 11.62 16.1595 11.596 16.3275 11.548C16.4955 11.492 16.6075 11.392 16.6635 11.248C16.7195 11.104 16.7475 10.896 16.7475 10.624V3.16H17.9595V10.624C17.9595 11.16 17.8755 11.604 17.7075 11.956C17.5395 12.308 17.2795 12.572 16.9275 12.748C16.5755 12.916 16.1195 13 15.5595 13H15.1875ZM19.1475 13C18.5875 13 18.1315 12.916 17.7795 12.748C17.4275 12.572 17.1675 12.308 16.9995 11.956C16.8315 11.604 16.7475 11.16 16.7475 10.624H17.9595C17.9595 10.896 17.9875 11.104 18.0435 11.248C18.0995 11.392 18.2115 11.492 18.3795 11.548C18.5555 11.596 18.8115 11.62 19.1475 11.62H19.3875V13H19.1475ZM19.3875 13V11.62C19.4755 11.62 19.5355 11.684 19.5675 11.812C19.6075 11.932 19.6275 12.096 19.6275 12.304C19.6275 12.512 19.6075 12.68 19.5675 12.808C19.5355 12.936 19.4755 13 19.3875 13ZM15.1875 13C15.0995 13 15.0395 12.936 15.0075 12.808C14.9675 12.68 14.9475 12.508 14.9475 12.292C14.9475 12.084 14.9675 11.92 15.0075 11.8C15.0395 11.68 15.0995 11.62 15.1875 11.62V13ZM26.6908 13C26.4268 13 26.1668 12.952 25.9108 12.856C25.6628 12.76 25.4348 12.608 25.2268 12.4C25.0188 12.184 24.8548 11.912 24.7348 11.584L25.5388 11.032C25.6108 11.24 25.7388 11.4 25.9228 11.512C26.1148 11.624 26.3148 11.68 26.5228 11.68C26.7788 11.68 27.0108 11.596 27.2188 11.428C27.4268 11.252 27.5308 10.984 27.5308 10.624V7.216H28.7428V10.624C28.7428 11.16 28.6428 11.604 28.4428 11.956C28.2428 12.308 27.9868 12.572 27.6748 12.748C27.3628 12.916 27.0348 13 26.6908 13ZM19.3828 13V11.62H19.9828C20.3268 11.62 20.5828 11.596 20.7508 11.548C20.9188 11.492 21.0308 11.392 21.0868 11.248C21.1428 11.104 21.1708 10.896 21.1708 10.624V8.404H22.3828V10.624C22.3828 11.16 22.2988 11.604 22.1308 11.956C21.9628 12.308 21.7028 12.572 21.3508 12.748C20.9988 12.916 20.5428 13 19.9828 13H19.3828ZM23.5108 13C23.2468 13 22.9868 12.952 22.7308 12.856C22.4828 12.76 22.2548 12.608 22.0468 12.4C21.8388 12.184 21.6748 11.912 21.5548 11.584L22.3588 11.032C22.4308 11.24 22.5588 11.4 22.7428 11.512C22.9348 11.624 23.1348 11.68 23.3428 11.68C23.5988 11.68 23.8308 11.596 24.0388 11.428C24.2468 11.252 24.3508 10.984 24.3508 10.624V7.804H25.5628V10.624C25.5628 11.16 25.4628 11.604 25.2628 11.956C25.0628 12.308 24.8068 12.572 24.4948 12.748C24.1828 12.916 23.8548 13 23.5108 13ZM19.3828 13C19.2948 13 19.2348 12.936 19.2028 12.808C19.1628 12.68 19.1428 12.508 19.1428 12.292C19.1428 12.084 19.1628 11.92 19.2028 11.8C19.2348 11.68 19.2948 11.62 19.3828 11.62V13Z" fill="#F04438"/>
<g clip-path="url(#clip0_69_8860)">
<path d="M47 17.64C42.2359 17.64 38.36 13.7641 38.36 9C38.36 4.23594 42.2359 0.360001 47 0.360001C51.764 0.360001 55.64 4.23594 55.64 9C55.64 13.7641 51.764 17.64 47 17.64ZM47 1.44C42.8314 1.44 39.44 4.83138 39.44 9C39.44 13.1686 42.8314 16.56 47 16.56C51.1686 16.56 54.56 13.1686 54.56 9C54.56 4.83138 51.1686 1.44 47 1.44ZM51.0215 12.7231C51.085 12.6914 51.1415 12.6475 51.188 12.5939C51.2345 12.5404 51.27 12.4782 51.2924 12.4109C51.3148 12.3436 51.3238 12.2726 51.3188 12.2018C51.3137 12.1311 51.2948 12.0621 51.2631 11.9986C51.2127 11.8984 49.9993 9.54 47 9.54C44.0006 9.54 42.7873 11.8984 42.7369 11.9984C42.6731 12.126 42.6626 12.2736 42.7075 12.409C42.7525 12.5443 42.8492 12.6563 42.9766 12.7204C43.1042 12.785 43.2522 12.7964 43.3881 12.752C43.524 12.7077 43.6368 12.6112 43.7017 12.4837C43.7407 12.4078 44.6834 10.62 47 10.62C49.3166 10.62 50.2592 12.4078 50.2969 12.4816C50.3285 12.5451 50.3724 12.6017 50.426 12.6482C50.4796 12.6947 50.5418 12.7302 50.6091 12.7526C50.6764 12.7751 50.7475 12.784 50.8183 12.7789C50.889 12.7739 50.9581 12.7549 51.0215 12.7231ZM49.7 7.92C49.1044 7.92 48.62 7.43544 48.62 6.84C48.62 6.24456 49.1044 5.76 49.7 5.76C50.2956 5.76 50.78 6.24456 50.78 6.84C50.78 7.43544 50.2956 7.92 49.7 7.92ZM44.3 7.92C43.7044 7.92 43.22 7.43544 43.22 6.84C43.22 6.24456 43.7044 5.76 44.3 5.76C44.8956 5.76 45.38 6.24456 45.38 6.84C45.38 7.43544 44.8956 7.92 44.3 7.92Z" fill="#F04438"/>
</g>
<defs>
<clipPath id="clip0_69_8860">
<rect width="18" height="18" fill="white" transform="translate(38)"/>
</clipPath>
</defs>
</svg>
