<svg width="58" height="18" viewBox="0 0 58 18" fill="none" xmlns="http://www.w3.org/2000/svg">
<path d="M5.064 13V11.62H7.368V13H5.064ZM7.368 13V11.62C7.456 11.62 7.516 11.684 7.548 11.812C7.588 11.932 7.608 12.096 7.608 12.304C7.608 12.512 7.588 12.68 7.548 12.808C7.516 12.936 7.456 13 7.368 13ZM5.196 13C5.188 12.144 5.036 11.38 4.74 10.708C4.444 10.036 4.02 9.476 3.468 9.028C2.924 8.58 2.268 8.268 1.5 8.092L1.776 6.748C2.72 6.964 3.536 7.364 4.224 7.948C4.912 8.524 5.444 9.244 5.82 10.108C6.204 10.964 6.4 11.928 6.408 13H5.196ZM0.48 13V11.62H6.156V13H0.48ZM9.05109 7.216H10.2631V13H7.37109V11.62H9.05109V7.216ZM7.37109 13C7.28309 13 7.22309 12.936 7.19109 12.808C7.15109 12.68 7.13109 12.508 7.13109 12.292C7.13109 12.084 7.15109 11.92 7.19109 11.8C7.22309 11.68 7.28309 11.62 7.37109 11.62V13ZM10.0471 15.928C9.83909 15.928 9.66309 15.856 9.51909 15.712C9.38309 15.568 9.31509 15.396 9.31509 15.196C9.31509 14.98 9.38309 14.804 9.51909 14.668C9.66309 14.532 9.83909 14.464 10.0471 14.464C10.2551 14.464 10.4271 14.532 10.5631 14.668C10.7071 14.804 10.7791 14.98 10.7791 15.196C10.7791 15.396 10.7071 15.568 10.5631 15.712C10.4271 15.856 10.2551 15.928 10.0471 15.928ZM8.34309 15.928C8.13509 15.928 7.95909 15.856 7.81509 15.712C7.67909 15.568 7.61109 15.396 7.61109 15.196C7.61109 14.98 7.67909 14.804 7.81509 14.668C7.95909 14.532 8.13509 14.464 8.34309 14.464C8.55109 14.464 8.72309 14.532 8.85909 14.668C9.00309 14.804 9.07509 14.98 9.07509 15.196C9.07509 15.396 9.00309 15.568 8.85909 15.712C8.72309 15.856 8.55109 15.928 8.34309 15.928ZM13.2697 13V11.62H14.6977V13H13.2697ZM12.0577 13V3.16H13.2697V13H12.0577ZM14.6977 13V11.62C14.7857 11.62 14.8457 11.684 14.8777 11.812C14.9177 11.932 14.9377 12.096 14.9377 12.304C14.9377 12.512 14.9177 12.68 14.8777 12.808C14.8457 12.936 14.7857 13 14.6977 13ZM20.9353 13V11.62H22.6273V13H20.9353ZM14.6953 13C14.6073 13 14.5473 12.936 14.5153 12.808C14.4753 12.68 14.4553 12.508 14.4553 12.292C14.4553 12.084 14.4753 11.92 14.5153 11.8C14.5473 11.68 14.6073 11.62 14.6953 11.62V13ZM19.9873 13V9.856C19.9873 9.488 19.8913 9.168 19.6993 8.896C19.5153 8.616 19.2473 8.4 18.8953 8.248C18.5433 8.088 18.1233 8.008 17.6353 8.008C17.2513 8.008 16.8753 8.052 16.5073 8.14C16.1473 8.228 15.8313 8.336 15.5593 8.464L15.0673 7.372C15.4593 7.124 15.8753 6.94 16.3153 6.82C16.7553 6.692 17.2033 6.628 17.6593 6.628C18.1793 6.628 18.6553 6.708 19.0873 6.868C19.5193 7.02 19.8913 7.24 20.2033 7.528C20.5233 7.816 20.7673 8.16 20.9353 8.56C21.1113 8.952 21.1993 9.384 21.1993 9.856V13H19.9873ZM14.6953 13V11.62H21.7273L21.5113 13H14.6953ZM22.6273 13V11.62C22.7153 11.62 22.7753 11.684 22.8073 11.812C22.8473 11.932 22.8673 12.096 22.8673 12.304C22.8673 12.512 22.8473 12.68 22.8073 12.808C22.7753 12.936 22.7153 13 22.6273 13ZM22.6289 13V11.62C23.0129 11.62 23.3329 11.544 23.5889 11.392C23.8449 11.24 24.0689 11.032 24.2609 10.768C24.4609 10.504 24.6529 10.208 24.8369 9.88C25.0209 9.56 25.2169 9.244 25.4249 8.932C25.6329 8.62 25.8609 8.336 26.1089 8.08C26.3569 7.824 26.6329 7.62 26.9369 7.468C27.2409 7.308 27.5849 7.228 27.9689 7.228C28.3929 7.228 28.7529 7.32 29.0489 7.504C29.3529 7.68 29.5969 7.92 29.7809 8.224C29.9649 8.52 30.0969 8.852 30.1769 9.22C30.2649 9.588 30.3089 9.96 30.3089 10.336C30.3089 10.744 30.2529 11.208 30.1409 11.728C30.0289 12.24 29.8449 12.72 29.5889 13.168L28.5329 12.484C28.7169 12.164 28.8569 11.82 28.9529 11.452C29.0489 11.084 29.0969 10.712 29.0969 10.336C29.0969 9.744 29.0009 9.308 28.8089 9.028C28.6169 8.748 28.3369 8.608 27.9689 8.608C27.7369 8.608 27.5169 8.668 27.3089 8.788C27.1089 8.9 26.8969 9.1 26.6729 9.388C26.4489 9.668 26.1849 10.064 25.8809 10.576C25.5609 11.12 25.2449 11.572 24.9329 11.932C24.6289 12.292 24.2929 12.56 23.9249 12.736C23.5649 12.912 23.1329 13 22.6289 13ZM29.5289 11.788L29.5889 13.168C28.8689 13.208 28.2449 13.2 27.7169 13.144C27.1889 13.096 26.7249 13.004 26.3249 12.868C25.9329 12.732 25.5809 12.56 25.2689 12.352C24.9649 12.136 24.6809 11.892 24.4169 11.62L25.2929 10.66C25.5889 10.964 25.9209 11.208 26.2889 11.392C26.6649 11.568 27.1129 11.688 27.6329 11.752C28.1609 11.816 28.7929 11.828 29.5289 11.788ZM22.6289 13C22.5409 13 22.4809 12.936 22.4489 12.808C22.4089 12.68 22.3889 12.508 22.3889 12.292C22.3889 12.084 22.4089 11.92 22.4489 11.8C22.4809 11.68 22.5409 11.62 22.6289 11.62V13Z" fill="#F79009"/>
<g clip-path="url(#clip0_69_8832)">
<path d="M49 0C44.0374 0 40 4.03738 40 9C40 13.9626 44.0374 18 49 18C53.9626 18 58 13.9626 58 9C58 4.03738 53.9626 0 49 0ZM49 16.875C44.6577 16.875 41.125 13.3423 41.125 9C41.125 4.65771 44.6577 1.125 49 1.125C53.3423 1.125 56.875 4.65771 56.875 9C56.875 13.3423 53.3423 16.875 49 16.875ZM45.2977 7.90864C44.6772 7.90864 44.1722 7.40377 44.1722 6.78315C44.1722 6.16254 44.6771 5.65766 45.2977 5.65766C45.9183 5.65766 46.4232 6.16254 46.4232 6.78315C46.4232 7.40377 45.9183 7.90864 45.2977 7.90864ZM53.8277 6.78315C53.8277 7.40373 53.3228 7.90864 52.7022 7.90864C52.0816 7.90864 51.5767 7.40377 51.5767 6.78315C51.5767 6.16254 52.0816 5.65766 52.7022 5.65766C53.3228 5.65766 53.8277 6.16257 53.8277 6.78315ZM53.0933 12.2487C53.0933 12.5594 52.8415 12.8112 52.5308 12.8112H45.4692C45.1585 12.8112 44.9067 12.5594 44.9067 12.2487C44.9067 11.9381 45.1585 11.6862 45.4692 11.6862H52.5308C52.8415 11.6862 53.0933 11.938 53.0933 12.2487Z" fill="#F79009"/>
</g>
<defs>
<clipPath id="clip0_69_8832">
<rect width="18" height="18" fill="white" transform="translate(40)"/>
</clipPath>
</defs>
</svg>
