<svg width="59" height="20" viewBox="0 0 59 20" fill="none" xmlns="http://www.w3.org/2000/svg">
<path d="M5.604 16.864C4.54 16.864 3.624 16.712 2.856 16.408C2.088 16.112 1.5 15.668 1.092 15.076C0.684 14.484 0.48 13.752 0.48 12.88C0.48 12.624 0.496 12.364 0.528 12.1C0.568 11.828 0.62 11.544 0.684 11.248L1.824 11.476C1.776 11.772 1.74 12.028 1.716 12.244C1.7 12.46 1.692 12.644 1.692 12.796C1.692 13.692 2.012 14.364 2.652 14.812C3.3 15.26 4.268 15.484 5.556 15.484C6.324 15.484 6.984 15.412 7.536 15.268C8.096 15.132 8.528 14.948 8.832 14.716C9.136 14.484 9.288 14.232 9.288 13.96C9.288 13.8 9.228 13.664 9.108 13.552C8.988 13.44 8.788 13.328 8.508 13.216C8.228 13.104 7.848 12.964 7.368 12.796L7.74 11.488C8.068 11.592 8.396 11.708 8.724 11.836C9.052 11.964 9.348 12.12 9.612 12.304C9.884 12.488 10.1 12.716 10.26 12.988C10.42 13.252 10.5 13.58 10.5 13.972C10.5 14.364 10.416 14.712 10.248 15.016C10.08 15.328 9.844 15.6 9.54 15.832C9.244 16.064 8.892 16.256 8.484 16.408C8.076 16.56 7.628 16.672 7.14 16.744C6.652 16.824 6.14 16.864 5.604 16.864ZM8.676 13C7.74 13 7.032 12.768 6.552 12.304L7.392 11.32C7.448 11.368 7.536 11.416 7.656 11.464C7.784 11.512 7.936 11.552 8.112 11.584C8.288 11.608 8.476 11.62 8.676 11.62H10.5V13H8.676ZM10.5 13V11.62C10.588 11.62 10.648 11.684 10.68 11.812C10.72 11.932 10.74 12.096 10.74 12.304C10.74 12.512 10.72 12.68 10.68 12.808C10.648 12.936 10.588 13 10.5 13ZM6.468 19.792C6.26 19.792 6.084 19.72 5.94 19.576C5.804 19.432 5.736 19.26 5.736 19.06C5.736 18.844 5.804 18.668 5.94 18.532C6.084 18.396 6.26 18.328 6.468 18.328C6.676 18.328 6.848 18.396 6.984 18.532C7.128 18.668 7.2 18.844 7.2 19.06C7.2 19.26 7.128 19.432 6.984 19.576C6.848 19.72 6.676 19.792 6.468 19.792ZM4.764 19.792C4.556 19.792 4.38 19.72 4.236 19.576C4.1 19.432 4.032 19.26 4.032 19.06C4.032 18.844 4.1 18.668 4.236 18.532C4.38 18.396 4.556 18.328 4.764 18.328C4.972 18.328 5.144 18.396 5.28 18.532C5.424 18.668 5.496 18.844 5.496 19.06C5.496 19.26 5.424 19.432 5.28 19.576C5.144 19.72 4.972 19.792 4.764 19.792ZM12.18 7.216H13.392V13H10.5V11.62H12.18V7.216ZM10.5 13C10.412 13 10.352 12.936 10.32 12.808C10.28 12.68 10.26 12.508 10.26 12.292C10.26 12.084 10.28 11.92 10.32 11.8C10.352 11.68 10.412 11.62 10.5 11.62V13ZM12.324 16.216C12.1 16.216 11.908 16.136 11.748 15.976C11.596 15.824 11.52 15.636 11.52 15.412C11.52 15.18 11.596 14.988 11.748 14.836C11.908 14.684 12.1 14.608 12.324 14.608C12.556 14.608 12.748 14.684 12.9 14.836C13.052 14.988 13.128 15.18 13.128 15.412C13.128 15.636 13.052 15.824 12.9 15.976C12.748 16.136 12.556 16.216 12.324 16.216ZM16.3986 13V11.62H17.8266V13H16.3986ZM15.1866 13V3.16H16.3986V13H15.1866ZM17.8266 13V11.62C17.9146 11.62 17.9746 11.684 18.0066 11.812C18.0466 11.932 18.0666 12.096 18.0666 12.304C18.0666 12.512 18.0466 12.68 18.0066 12.808C17.9746 12.936 17.9146 13 17.8266 13ZM24.0642 13V11.62H25.7562V13H24.0642ZM17.8242 13C17.7362 13 17.6762 12.936 17.6442 12.808C17.6042 12.68 17.5842 12.508 17.5842 12.292C17.5842 12.084 17.6042 11.92 17.6442 11.8C17.6762 11.68 17.7362 11.62 17.8242 11.62V13ZM23.1162 13V9.856C23.1162 9.488 23.0202 9.168 22.8282 8.896C22.6442 8.616 22.3762 8.4 22.0242 8.248C21.6722 8.088 21.2522 8.008 20.7642 8.008C20.3802 8.008 20.0042 8.052 19.6362 8.14C19.2762 8.228 18.9602 8.336 18.6882 8.464L18.1962 7.372C18.5882 7.124 19.0042 6.94 19.4442 6.82C19.8842 6.692 20.3322 6.628 20.7882 6.628C21.3082 6.628 21.7842 6.708 22.2162 6.868C22.6482 7.02 23.0202 7.24 23.3322 7.528C23.6522 7.816 23.8962 8.16 24.0642 8.56C24.2402 8.952 24.3282 9.384 24.3282 9.856V13H23.1162ZM17.8242 13V11.62H24.8562L24.6402 13H17.8242ZM25.7562 13V11.62C25.8442 11.62 25.9042 11.684 25.9362 11.812C25.9762 11.932 25.9962 12.096 25.9962 12.304C25.9962 12.512 25.9762 12.68 25.9362 12.808C25.9042 12.936 25.8442 13 25.7562 13ZM20.9682 16.216C20.7442 16.216 20.5522 16.136 20.3922 15.976C20.2402 15.824 20.1642 15.636 20.1642 15.412C20.1642 15.18 20.2402 14.988 20.3922 14.836C20.5522 14.684 20.7442 14.608 20.9682 14.608C21.2002 14.608 21.3922 14.684 21.5442 14.836C21.6962 14.988 21.7722 15.18 21.7722 15.412C21.7722 15.636 21.6962 15.824 21.5442 15.976C21.3922 16.136 21.2002 16.216 20.9682 16.216ZM27.4378 7.216H28.6498V13H25.7578V11.62H27.4378V7.216ZM25.7578 13C25.6698 13 25.6098 12.936 25.5778 12.808C25.5378 12.68 25.5178 12.508 25.5178 12.292C25.5178 12.084 25.5378 11.92 25.5778 11.8C25.6098 11.68 25.6698 11.62 25.7578 11.62V13ZM28.4338 15.928C28.2258 15.928 28.0498 15.856 27.9058 15.712C27.7698 15.568 27.7018 15.396 27.7018 15.196C27.7018 14.98 27.7698 14.804 27.9058 14.668C28.0498 14.532 28.2258 14.464 28.4338 14.464C28.6418 14.464 28.8138 14.532 28.9498 14.668C29.0938 14.804 29.1658 14.98 29.1658 15.196C29.1658 15.396 29.0938 15.568 28.9498 15.712C28.8138 15.856 28.6418 15.928 28.4338 15.928ZM26.7298 15.928C26.5218 15.928 26.3458 15.856 26.2018 15.712C26.0658 15.568 25.9978 15.396 25.9978 15.196C25.9978 14.98 26.0658 14.804 26.2018 14.668C26.3458 14.532 26.5218 14.464 26.7298 14.464C26.9378 14.464 27.1098 14.532 27.2458 14.668C27.3898 14.804 27.4618 14.98 27.4618 15.196C27.4618 15.396 27.3898 15.568 27.2458 15.712C27.1098 15.856 26.9378 15.928 26.7298 15.928ZM30.4444 13V3.16H31.6564V13H30.4444ZM31.4404 16.06C31.0164 16.06 30.6684 15.976 30.3964 15.808C30.1324 15.648 30.0004 15.408 30.0004 15.088C30.0004 14.864 30.0644 14.672 30.1924 14.512C30.3204 14.352 30.4884 14.228 30.6964 14.14C30.9044 14.052 31.1284 14.008 31.3684 14.008C31.5124 14.008 31.6524 14.024 31.7884 14.056C31.9324 14.088 32.0684 14.136 32.1964 14.2L31.8844 14.884C31.8204 14.868 31.7444 14.856 31.6564 14.848C31.5764 14.84 31.5044 14.836 31.4404 14.836C31.2164 14.836 31.0404 14.868 30.9124 14.932C30.7844 14.996 30.7204 15.068 30.7204 15.148C30.7204 15.228 30.7844 15.3 30.9124 15.364C31.0404 15.428 31.2164 15.46 31.4404 15.46V16.06ZM29.7844 16.3V15.46H32.3284V16.3H29.7844Z" fill="#12B76A"/>
<g clip-path="url(#clip0_69_8888)">
<path d="M56.3639 2.63605C54.6641 0.936176 52.404 0 50 0C47.596 0 45.3359 0.936176 43.6361 2.63605C41.9361 4.33589 41 6.59602 41 9C41 11.404 41.9361 13.6641 43.6361 15.3639C45.3359 17.0638 47.596 18 50 18C52.404 18 54.6641 17.0638 56.3639 15.3639C58.0639 13.6641 59 11.404 59 9C59 6.59602 58.0639 4.33589 56.3639 2.63605ZM50 16.9286C45.6282 16.9286 42.0714 13.3718 42.0714 9C42.0714 4.62818 45.6282 1.07142 50 1.07142C54.3718 1.07142 57.9286 4.62818 57.9286 9C57.9286 13.3718 54.3718 16.9286 50 16.9286Z" fill="#12B76A"/>
<path d="M48.0531 6.6233C47.1758 5.74597 45.7484 5.74604 44.8711 6.6233C44.6619 6.83248 44.6619 7.1717 44.8711 7.38092C45.0804 7.5901 45.4196 7.5901 45.6288 7.38092C46.0884 6.92139 46.8361 6.92142 47.2956 7.38092C47.4002 7.48554 47.5373 7.53785 47.6743 7.53785C47.8114 7.53785 47.9485 7.48554 48.0531 7.38092C48.2623 7.1717 48.2623 6.83251 48.0531 6.6233ZM55.1287 6.6233C54.2515 5.74604 52.824 5.74597 51.9468 6.6233C51.7375 6.83248 51.7375 7.1717 51.9468 7.38092C52.156 7.5901 52.4952 7.5901 52.7044 7.38092C53.1639 6.92139 53.9116 6.92135 54.3712 7.38092C54.4758 7.48554 54.6129 7.53785 54.7499 7.53785C54.887 7.53785 55.0242 7.48554 55.1287 7.38092C55.3379 7.1717 55.3379 6.83251 55.1287 6.6233ZM54.75 9.39287H45.25C44.9541 9.39287 44.7143 9.63274 44.7143 9.92858C44.7143 12.8431 47.0855 15.2143 50 15.2143C52.9145 15.2143 55.2857 12.8431 55.2857 9.92858C55.2857 9.63271 55.0459 9.39287 54.75 9.39287ZM50 14.1429C47.8576 14.1429 46.0835 12.5361 45.8196 10.4643H54.1804C53.9165 12.5361 52.1423 14.1429 50 14.1429Z" fill="#12B76A"/>
</g>
<defs>
<clipPath id="clip0_69_8888">
<rect width="18" height="18" fill="white" transform="translate(41)"/>
</clipPath>
</defs>
</svg>
