<svg width="16" height="17" viewBox="0 0 16 17" fill="none" xmlns="http://www.w3.org/2000/svg">
<g clip-path="url(#clip0_69_8845)">
<path d="M15.9519 5.20166C15.913 4.3501 15.7777 3.76855 15.58 3.25977C15.3792 2.72595 15.0642 2.24243 14.6572 1.84277C14.2577 1.43579 13.774 1.12073 13.2402 0.9198C12.7313 0.722168 12.1499 0.587036 11.2983 0.54834C10.4452 0.509277 10.1726 0.5 8 0.5C5.82739 0.5 5.55481 0.509277 4.70166 0.548096C3.8501 0.587036 3.26868 0.72229 2.75977 0.920044C2.22595 1.12085 1.74243 1.43579 1.34277 1.84277C0.935791 2.24231 0.620728 2.72583 0.4198 3.25964C0.222168 3.76855 0.0870361 4.3501 0.0483398 5.20154C0.00927734 6.05481 0 6.32727 0 8.49988C0 10.6726 0.00927734 10.9452 0.0483398 11.7983C0.0871582 12.6498 0.222412 13.2313 0.420166 13.7402C0.620972 14.2739 0.935913 14.7576 1.3429 15.1571C1.74243 15.5641 2.22607 15.879 2.75989 16.0798C3.26868 16.2777 3.85022 16.4128 4.70178 16.4518C5.55505 16.4907 5.82751 16.4999 8.00012 16.4999C10.1727 16.4999 10.4453 16.4907 11.2985 16.4518C12.15 16.4128 12.7314 16.2777 13.2404 16.0798C14.3149 15.6643 15.1644 14.8148 15.58 13.7402C15.7778 13.2313 15.913 12.6498 15.9519 11.7983C15.9907 10.9451 16 10.6726 16 8.5C16 6.32727 15.9907 6.05481 15.9519 5.20166ZM14.5118 11.7328C14.4763 12.5128 14.3459 12.9364 14.2365 13.2183C13.9673 13.916 13.4159 14.4674 12.7181 14.7366C12.4363 14.8461 12.0127 14.9764 11.2327 15.012C10.3893 15.0505 10.1362 15.0586 8 15.0586C5.86365 15.0586 5.61072 15.0505 4.76721 15.012C3.9873 14.9764 3.56372 14.8461 3.28174 14.7366C2.93433 14.6083 2.62 14.4038 2.36194 14.1381C2.09619 13.88 1.89172 13.5658 1.76343 13.2183C1.65393 12.9364 1.52356 12.5128 1.48804 11.7328C1.44958 10.8893 1.44141 10.6362 1.44141 8.50012C1.44141 6.36389 1.44958 6.11096 1.48804 5.26733C1.52368 4.4873 1.65393 4.06372 1.76343 3.78186C1.89172 3.43433 2.09631 3.12 2.36194 2.86194C2.62 2.59619 2.93433 2.39172 3.28186 2.26355C3.56372 2.15393 3.9873 2.02368 4.76733 1.98804C5.61084 1.94958 5.86389 1.94141 8 1.94141H7.99988C10.136 1.94141 10.389 1.94958 11.2327 1.98816C12.0127 2.02368 12.4362 2.15405 12.7181 2.26355C13.0656 2.39185 13.3799 2.59631 13.6379 2.86194C13.9037 3.12 14.1082 3.43433 14.2363 3.78186C14.3459 4.06372 14.4763 4.4873 14.5118 5.26733C14.5503 6.11084 14.5585 6.36389 14.5585 8.5C14.5585 10.6362 14.5504 10.8892 14.5118 11.7328Z" fill="url(#paint0_linear_69_8845)"/>
<path d="M7.99988 4.39185C5.73108 4.39185 3.89185 6.2312 3.89185 8.5C3.89185 10.7688 5.73108 12.608 7.99988 12.608C10.2688 12.608 12.108 10.7688 12.108 8.5C12.108 6.2312 10.2688 4.39185 7.99988 4.39185ZM7.99988 11.1666C6.52722 11.1665 5.33325 9.97266 5.33337 8.49988C5.33337 7.02722 6.52722 5.83325 8 5.83325C9.47278 5.83337 10.6666 7.02722 10.6666 8.49988C10.6666 9.97266 9.47266 11.1666 7.99988 11.1666Z" fill="url(#paint1_linear_69_8845)"/>
<path d="M13.2303 4.22961C13.2303 4.75977 12.8005 5.18958 12.2704 5.18958C11.7401 5.18958 11.3103 4.75977 11.3103 4.22961C11.3103 3.69934 11.7401 3.26953 12.2704 3.26953C12.8005 3.26953 13.2303 3.69934 13.2303 4.22961Z" fill="url(#paint2_linear_69_8845)"/>
</g>
<defs>
<linearGradient id="paint0_linear_69_8845" x1="1.34269" y1="15.1572" x2="14.6573" y2="1.84256" gradientUnits="userSpaceOnUse">
<stop stop-color="#FFD600"/>
<stop offset="0.5" stop-color="#FF0100"/>
<stop offset="1" stop-color="#D800B9"/>
</linearGradient>
<linearGradient id="paint1_linear_69_8845" x1="5.09509" y1="11.4048" x2="10.9048" y2="5.59509" gradientUnits="userSpaceOnUse">
<stop stop-color="#FF6400"/>
<stop offset="0.5" stop-color="#FF0100"/>
<stop offset="1" stop-color="#FD0056"/>
</linearGradient>
<linearGradient id="paint2_linear_69_8845" x1="11.5915" y1="4.90836" x2="12.9491" y2="3.55075" gradientUnits="userSpaceOnUse">
<stop stop-color="#F30072"/>
<stop offset="1" stop-color="#E50097"/>
</linearGradient>
<clipPath id="clip0_69_8845">
<rect width="16" height="16" fill="white" transform="translate(0 0.5)"/>
</clipPath>
</defs>
</svg>
