<svg width="16" height="17" viewBox="0 0 16 17" fill="none" xmlns="http://www.w3.org/2000/svg">
<path d="M11.451 6.27564C12.4799 7.01376 13.7403 7.44805 15.1017 7.44805V4.81907C14.8441 4.81912 14.5871 4.79216 14.335 4.73857V6.80795C12.9738 6.80795 11.7135 6.37366 10.6843 5.6356V11.0006C10.6843 13.6844 8.51638 15.8599 5.84224 15.8599C4.84446 15.8599 3.91706 15.5572 3.14667 15.038C4.02594 15.9403 5.25216 16.5 6.60875 16.5C9.28305 16.5 11.4511 14.3245 11.4511 11.6405V6.27564H11.451ZM12.3968 3.62332C11.8709 3.04681 11.5257 2.30178 11.451 1.47811V1.13997H10.7245C10.9073 2.18685 11.5311 3.08124 12.3968 3.62332ZM4.83806 12.9785C4.54428 12.592 4.38552 12.1191 4.38623 11.6328C4.38623 10.4053 5.37783 9.41008 6.6012 9.41008C6.8292 9.41002 7.05582 9.44505 7.2731 9.51424V6.82651C7.01918 6.79158 6.76292 6.77676 6.50676 6.7822V8.8742C6.28932 8.80501 6.06258 8.76987 5.83453 8.77009C4.61116 8.77009 3.61961 9.76524 3.61961 10.9929C3.61961 11.8609 4.11525 12.6124 4.83806 12.9785Z" fill="#FF004F"/>
<path d="M10.6843 5.63554C11.7135 6.3736 12.9738 6.80789 14.335 6.80789V4.73851C13.5752 4.57609 12.9025 4.1776 12.3968 3.62332C11.531 3.08119 10.9073 2.18679 10.7245 1.13997H8.81606V11.6404C8.81174 12.8645 7.82183 13.8557 6.60108 13.8557C5.88171 13.8557 5.24263 13.5116 4.83788 12.9785C4.11513 12.6124 3.61949 11.8609 3.61949 10.9929C3.61949 9.76541 4.61104 8.77014 5.83441 8.77014C6.0688 8.77014 6.29472 8.80677 6.50663 8.87425V6.78225C3.87947 6.83672 1.7666 8.991 1.7666 11.6405C1.7666 12.963 2.29276 14.162 3.14671 15.0381C3.9171 15.5572 4.8445 15.86 5.84228 15.86C8.51647 15.86 10.6844 13.6844 10.6844 11.0006V5.63554H10.6843Z" fill="black"/>
<path d="M14.335 4.73853V4.17899C13.6498 4.18003 12.9781 3.98746 12.3968 3.62329C12.9114 4.18871 13.589 4.57858 14.335 4.73853ZM10.7245 1.13999C10.707 1.03994 10.6936 0.939234 10.6843 0.838143V0.5H8.04935V11.0005C8.04513 12.2245 7.05528 13.2157 5.83442 13.2157C5.476 13.2157 5.13759 13.1303 4.8379 12.9786C5.24264 13.5116 5.88173 13.8557 6.6011 13.8557C7.82173 13.8557 8.81181 12.8646 8.81607 11.6405V1.13999H10.7245ZM6.50676 6.78227V6.18659C6.28658 6.15639 6.06461 6.14124 5.84235 6.14135C3.16794 6.14129 1 8.31693 1 11.0005C1 12.683 1.85204 14.1658 3.14678 15.038C2.29283 14.162 1.76667 12.963 1.76667 11.6404C1.76667 8.99101 3.87949 6.83674 6.50676 6.78227Z" fill="#00F2EA"/>
</svg>
